<?xml version="1.0" encoding="utf-8"?>
<!-- Generator: Adobe Illustrator 25.4.1, SVG Export Plug-In . SVG Version: 6.00 Build 0)  -->
<svg version="1.1" id="Layer_1" xmlns="http://www.w3.org/2000/svg" xmlns:xlink="http://www.w3.org/1999/xlink" x="0px" y="0px"
	 viewBox="0 0 1762 1133" style="enable-background:new 0 0 1762 1133;" xml:space="preserve">
<style type="text/css">
	.st0{fill:none;}
	.st1{fill:#1c1f2f;}
	.st2{fill:url(#SVGID_1_);}
	.st3{fill:url(#SVGID_00000108270980892912015380000015067438473043402920_);}
</style>
<pattern  x="242" y="501" width="229.83" height="153.22" patternUnits="userSpaceOnUse" id="New_Pattern" viewBox="76.61 -229.83 229.83 153.22" style="overflow:visible;">
	<g>
		<rect x="76.61" y="-229.83" class="st0" width="229.83" height="153.22"/>
		<g>
			<path class="st1" d="M316.46-90.34c0.46,0.34,0.81,0.81,1.12,1.3c0.52,0.83,1.04,1.67,1.5,2.53c2.15,4.03,3.44,8.65,4.55,13.1
				c0.8,3.17,1.66,6.33,2.68,9.43c0.36,1.09,0.02,1.38-0.84,1.46c-1.06,0.1-2.14,0.18-3.19,0.07c-4.5-0.45-9-0.94-13.49-1.5
				c-1.46-0.18-2.92-0.4-4.37-0.65c-0.97-0.16-3.1-0.12-3.73-0.99c-0.24-0.34-0.35-0.75-0.45-1.15c-0.82-3.33-1.63-6.67-2.45-10
				c-0.01-0.06-0.03-0.11-0.05-0.16c-0.66-2.48-0.37-3.01,2.16-3.15c3.4-0.18,6.8-0.21,10.2-0.3c0.34-0.01,0.68,0.03,1.02,0.03
				c2.36-0.05,2.86,0.27,3.5,2.59c0.41,1.47,0.69,2.98,1.01,4.48c0.22,1.05-0.15,1.52-1.27,1.31c-0.96-0.18-1.95-0.26-2.9-0.47
				c-0.22-0.05-0.41-0.44-0.52-0.71c-0.83-2.1-0.82-2.1-3.12-1.94c-0.51,0.04-1.02,0.07-1.53,0.1c-2.2,0.16-2.2,0.17-1.69,2.41
				c0.91,4,0.91,3.96,4.97,4.01c2.49,0.03,4.99,0.22,7.48,0.29c0.67,0.02,1.4,0.01,1.99-0.24c0.32-0.13,0.64-0.85,0.57-1.22
				c-0.36-1.93-1-3.81-1.25-5.75c-0.39-3.03-1.27-5.83-2.9-8.44c-0.84-1.36-1.82-2.01-3.42-1.92c-3.44,0.21-6.9,0.16-10.31,0.58
				c-3.43,0.42-6.81,1.23-10.2,1.95c-1.98,0.42-1.9-1.07-2.34-2.64c-0.56-2.02,0.5-2.77,2.43-2.93c5.68-0.48,11.36-1.05,17.04-1.55
				c1.37-0.12,2.75-0.21,4.13-0.27c1.03-0.05,2.42-0.39,3.35,0.14C316.27-90.47,316.37-90.41,316.46-90.34z"/>
			<g>
				<path class="st1" d="M289.1-141.07c1-0.15,2.77,0.84,3.12,1.82c0.47,1.3-1,2.36-1.81,3.07c-1.28,1.11-2.48,2.4-3.63,3.64
					c-0.82,0.88-1.56,1.55-2.86,1.42c-1.12-0.11-2.26,0.01-3.38-0.1c-0.36-0.03-0.91-0.44-0.95-0.73c-0.05-0.4,0.21-0.95,0.51-1.25
					c1.25-1.19,2.61-2.26,3.86-3.44c1.25-1.18,2.22-2.73,3.65-3.75C288.16-140.79,288.65-141.01,289.1-141.07z"/>
				<path class="st1" d="M294.81-134.67c0.1-0.03,0.2-0.04,0.3-0.06c0.78-0.09,3.96,0.82,3.43,1.9c-0.78,1.59-2.68,4.59-4.74,4.44
					c-0.8-0.06-1.58-0.45-2.34-0.69c-1.11-0.35-1.32-1.06-0.52-1.92C291.92-132.06,293.25-134.26,294.81-134.67z"/>
			</g>
			<rect x="229.83" y="-153.22" class="st0" width="153.22" height="153.22"/>
		</g>
		<g>
			<path class="st1" d="M86.63-90.34c0.46,0.34,0.81,0.81,1.12,1.3c0.52,0.83,1.04,1.67,1.5,2.53c2.15,4.03,3.44,8.65,4.55,13.1
				c0.8,3.17,1.66,6.33,2.68,9.43c0.36,1.09,0.02,1.38-0.84,1.46c-1.06,0.1-2.14,0.18-3.19,0.07c-4.5-0.45-9-0.94-13.49-1.5
				c-1.46-0.18-2.92-0.4-4.37-0.65c-0.97-0.16-3.1-0.12-3.73-0.99c-0.24-0.34-0.35-0.75-0.45-1.15c-0.82-3.33-1.63-6.67-2.45-10
				c-0.01-0.06-0.03-0.11-0.05-0.16c-0.66-2.48-0.37-3.01,2.16-3.15c3.4-0.18,6.8-0.21,10.2-0.3c0.34-0.01,0.68,0.03,1.02,0.03
				c2.36-0.05,2.86,0.27,3.5,2.59c0.41,1.47,0.69,2.98,1.01,4.48c0.22,1.05-0.15,1.52-1.27,1.31c-0.96-0.18-1.95-0.26-2.9-0.47
				c-0.22-0.05-0.41-0.44-0.52-0.71c-0.83-2.1-0.82-2.1-3.12-1.94c-0.51,0.04-1.02,0.07-1.53,0.1c-2.2,0.16-2.2,0.17-1.69,2.41
				c0.91,4,0.91,3.96,4.97,4.01c2.5,0.03,4.99,0.22,7.48,0.29c0.67,0.02,1.4,0.01,1.99-0.24c0.32-0.13,0.64-0.85,0.57-1.22
				c-0.36-1.93-1-3.81-1.25-5.75c-0.39-3.03-1.27-5.83-2.9-8.44c-0.84-1.36-1.82-2.01-3.42-1.92c-3.44,0.21-6.9,0.16-10.31,0.58
				c-3.43,0.42-6.81,1.23-10.2,1.95c-1.98,0.42-1.9-1.07-2.34-2.64c-0.56-2.02,0.5-2.77,2.43-2.93c5.68-0.48,11.36-1.05,17.04-1.55
				c1.37-0.12,2.75-0.21,4.13-0.27c1.03-0.05,2.42-0.39,3.35,0.14C86.44-90.47,86.54-90.41,86.63-90.34z"/>
			<path class="st1" d="M114.02-132.22c-2.37-3.61-9.13-4.61-10.53,0.42c-0.36,1.31-0.22,2.72,0.14,4.04
				c0.58,2.05,1.81,4.02,3.71,4.97c4.38,2.17,7.68-2.11,7.62-6.15C114.95-130.11,114.65-131.25,114.02-132.22z M111.87-128.53
				c0.03,2.35-3.4,2.85-4.54,1.08c-0.44-0.69-0.53-1.63-0.09-2.32c0.39-0.61,1.09-0.89,1.84-0.89
				C110.4-130.68,111.85-129.84,111.87-128.53z"/>
			<rect y="-153.22" class="st0" width="153.22" height="153.22"/>
		</g>
		<g>
			<path class="st1" d="M266.77-190.37c0.06,0.97,0.12,2.23,0.21,3.49c0.01,0.2,0.13,0.38,0.2,0.58c0.21-0.1,0.5-0.14,0.62-0.3
				c1.14-1.52,2.27-3.06,3.37-4.61c0.43-0.6,2.82-4.62,3.36-1.86c0.12,0.59-0.15,1.19-0.45,1.71c-0.45,0.78-0.83,1.56-1.32,2.33
				c-0.88,1.38-1.89,2.69-2.91,3.98c-1.26,1.58-2.09,3.44-2.49,5.41c-0.21,1.02-0.3,2.07-0.32,3.11c-0.02,0.88,0.32,2.13-0.17,2.89
				c-0.28,0.43-0.76,0.75-1.27,0.77c-0.9,0.04-1.65-0.8-1.82-1.69c-0.24-1.24,0.26-2.62,0.26-3.89c0-1.21-0.19-2.47-1.07-3.37
				c-1.12-1.14-2.3-2.09-3.31-3.35c-1.19-1.48-2.42-2.92-3.55-4.45c-0.48-0.64-1.24-1.79-1.29-2.61c-0.05-0.88,0.77-1.36,1.53-1.01
				c0.65,0.3,1.24,0.81,1.72,1.35c1.04,1.15,2.05,2.32,3.06,3.49c0.54,0.63,1.74,2.92,2.57,1.7c0.39-0.57,0.23-1.67,0.26-2.33
				c0.03-0.85,0.1-1.61,0.03-2.47c-0.05-0.62,0.11-1.37,0.68-1.61c0.9-0.38,2.16,0.79,2.18,1.67
				C266.88-191.2,266.82-190.93,266.77-190.37z"/>
			<path class="st1" d="M316.46-243.56c0.46,0.34,0.81,0.81,1.12,1.3c0.52,0.83,1.04,1.67,1.5,2.53c2.15,4.03,3.44,8.65,4.55,13.1
				c0.8,3.17,1.66,6.33,2.68,9.43c0.36,1.09,0.02,1.38-0.84,1.46c-1.06,0.1-2.14,0.18-3.19,0.07c-4.5-0.45-9-0.94-13.49-1.5
				c-1.46-0.18-2.92-0.4-4.37-0.65c-0.97-0.16-3.1-0.12-3.73-0.99c-0.24-0.34-0.35-0.75-0.45-1.15c-0.82-3.33-1.63-6.67-2.45-10
				c-0.01-0.06-0.03-0.11-0.05-0.16c-0.66-2.48-0.37-3.01,2.16-3.15c3.4-0.18,6.8-0.21,10.2-0.3c0.34-0.01,0.68,0.03,1.02,0.03
				c2.36-0.05,2.86,0.27,3.5,2.59c0.41,1.47,0.69,2.98,1.01,4.48c0.22,1.05-0.15,1.52-1.27,1.31c-0.96-0.18-1.95-0.26-2.9-0.47
				c-0.22-0.05-0.41-0.44-0.52-0.71c-0.83-2.1-0.82-2.1-3.12-1.94c-0.51,0.04-1.02,0.07-1.53,0.1c-2.2,0.16-2.2,0.17-1.69,2.41
				c0.91,4,0.91,3.96,4.97,4.01c2.49,0.03,4.99,0.22,7.48,0.29c0.67,0.02,1.4,0.01,1.99-0.24c0.32-0.13,0.64-0.85,0.57-1.22
				c-0.36-1.93-1-3.81-1.25-5.75c-0.39-3.03-1.27-5.83-2.9-8.44c-0.84-1.36-1.82-2.01-3.42-1.92c-3.44,0.21-6.9,0.16-10.31,0.58
				c-3.43,0.42-6.81,1.23-10.2,1.95c-1.98,0.42-1.9-1.07-2.34-2.64c-0.56-2.02,0.5-2.77,2.43-2.93c5.68-0.48,11.36-1.05,17.04-1.55
				c1.37-0.12,2.75-0.21,4.13-0.27c1.03-0.05,2.42-0.39,3.35,0.14C316.27-243.69,316.37-243.63,316.46-243.56z"/>
			<rect x="229.83" y="-306.44" class="st0" width="153.22" height="153.22"/>
		</g>
		<g>
			<path class="st1" d="M151.86-113.76c0.06,0.97,0.12,2.23,0.21,3.49c0.01,0.2,0.13,0.38,0.2,0.58c0.21-0.1,0.5-0.14,0.62-0.3
				c1.14-1.52,2.27-3.06,3.37-4.61c0.43-0.6,2.82-4.62,3.36-1.86c0.12,0.59-0.15,1.19-0.45,1.71c-0.45,0.78-0.83,1.56-1.32,2.33
				c-0.88,1.38-1.89,2.69-2.91,3.98c-1.26,1.58-2.09,3.44-2.49,5.41c-0.21,1.02-0.3,2.07-0.32,3.11c-0.02,0.88,0.32,2.13-0.17,2.89
				c-0.28,0.43-0.76,0.75-1.27,0.77c-0.9,0.04-1.65-0.8-1.82-1.69c-0.24-1.24,0.26-2.62,0.26-3.89c0-1.21-0.19-2.47-1.07-3.37
				c-1.12-1.14-2.3-2.09-3.31-3.35c-1.19-1.48-2.42-2.92-3.55-4.45c-0.48-0.64-1.24-1.79-1.29-2.61c-0.05-0.88,0.77-1.36,1.53-1.01
				c0.65,0.3,1.24,0.81,1.72,1.35c1.04,1.15,2.05,2.32,3.06,3.49c0.54,0.63,1.74,2.92,2.57,1.7c0.39-0.57,0.23-1.67,0.26-2.33
				c0.03-0.85,0.1-1.61,0.03-2.47c-0.05-0.62,0.11-1.37,0.68-1.61c0.9-0.38,2.16,0.79,2.18,1.67
				C151.96-114.59,151.91-114.32,151.86-113.76z"/>
			<path class="st1" d="M201.54-166.95c0.46,0.34,0.81,0.81,1.12,1.3c0.52,0.83,1.04,1.67,1.5,2.53c2.15,4.03,3.44,8.65,4.55,13.1
				c0.8,3.17,1.66,6.33,2.68,9.43c0.36,1.09,0.02,1.38-0.84,1.46c-1.06,0.1-2.14,0.18-3.19,0.07c-4.5-0.45-9-0.94-13.49-1.5
				c-1.46-0.18-2.92-0.4-4.37-0.65c-0.97-0.16-3.1-0.12-3.73-0.99c-0.24-0.34-0.35-0.75-0.45-1.15c-0.82-3.33-1.63-6.67-2.45-10
				c-0.01-0.06-0.03-0.11-0.05-0.16c-0.66-2.48-0.37-3.01,2.16-3.15c3.4-0.18,6.8-0.21,10.2-0.3c0.34-0.01,0.68,0.03,1.02,0.03
				c2.36-0.05,2.86,0.27,3.5,2.59c0.41,1.47,0.69,2.98,1.01,4.48c0.22,1.05-0.15,1.52-1.27,1.31c-0.96-0.18-1.95-0.26-2.9-0.47
				c-0.22-0.05-0.41-0.44-0.52-0.71c-0.83-2.1-0.82-2.1-3.12-1.94c-0.51,0.04-1.02,0.07-1.53,0.1c-2.2,0.16-2.2,0.17-1.69,2.41
				c0.91,4,0.91,3.96,4.97,4.01c2.5,0.03,4.99,0.22,7.48,0.29c0.67,0.02,1.4,0.01,1.99-0.24c0.32-0.13,0.64-0.85,0.57-1.22
				c-0.36-1.93-1-3.81-1.25-5.75c-0.39-3.03-1.27-5.83-2.9-8.44c-0.84-1.36-1.82-2.01-3.42-1.92c-3.44,0.21-6.9,0.16-10.31,0.58
				c-3.43,0.42-6.81,1.23-10.2,1.95c-1.98,0.42-1.9-1.07-2.34-2.64c-0.56-2.02,0.5-2.77,2.43-2.93c5.68-0.48,11.36-1.05,17.04-1.55
				c1.37-0.12,2.75-0.21,4.13-0.27c1.03-0.05,2.42-0.39,3.35,0.14C201.36-167.08,201.45-167.02,201.54-166.95z"/>
			<path class="st1" d="M234.36-116.69c0.33-0.02,0.68,0.04,0.98,0.17c0.91,0.38,1.51,1.23,2.3,1.79c1.51,1.08,3.64,1.73,5.37,2.4
				c0.35,0.13,1-0.19,1.36-0.48c1.55-1.22,3.04-2.53,4.59-3.75c0.46-0.36,1.06-0.71,1.63-0.75c1.33-0.11,1.9,0.81,1.22,1.97
				c-0.48,0.82-1.07,1.61-1.77,2.25c-1.36,1.26-2.76,2.47-4.17,3.68c-1.04,0.9-1.95,2.27-3.51,1.99c-0.93-0.17-1.72-0.75-2.47-1.32
				c-1.7-1.28-3.39-2.56-5.09-3.83c-0.6-0.45-1.22-0.92-1.58-1.58c-0.36-0.66-0.39-1.56,0.13-2.1
				C233.61-116.53,233.98-116.67,234.36-116.69z"/>
			<g>
				<path class="st1" d="M174.19-217.68c1-0.15,2.77,0.84,3.12,1.82c0.47,1.3-1,2.36-1.81,3.07c-1.28,1.11-2.48,2.4-3.63,3.64
					c-0.82,0.88-1.56,1.55-2.86,1.42c-1.12-0.11-2.26,0.01-3.38-0.1c-0.36-0.03-0.91-0.44-0.95-0.73c-0.05-0.4,0.21-0.95,0.51-1.25
					c1.25-1.19,2.61-2.26,3.86-3.44c1.25-1.18,2.22-2.73,3.65-3.75C173.25-217.4,173.74-217.62,174.19-217.68z"/>
				<path class="st1" d="M179.89-211.28c0.1-0.03,0.2-0.04,0.3-0.06c0.78-0.09,3.96,0.82,3.43,1.9c-0.78,1.59-2.68,4.59-4.74,4.44
					c-0.8-0.06-1.58-0.45-2.34-0.69c-1.11-0.35-1.32-1.06-0.52-1.92C177-208.66,178.33-210.87,179.89-211.28z"/>
			</g>
			<path class="st1" d="M228.93-208.83c-2.37-3.61-9.13-4.61-10.53,0.42c-0.36,1.31-0.22,2.72,0.14,4.04
				c0.58,2.05,1.81,4.02,3.71,4.97c4.38,2.17,7.68-2.11,7.62-6.15C229.86-206.72,229.56-207.86,228.93-208.83z M226.78-205.14
				c0.03,2.35-3.4,2.85-4.54,1.08c-0.44-0.69-0.53-1.63-0.09-2.32c0.39-0.61,1.09-0.89,1.84-0.89
				C225.32-207.29,226.76-206.45,226.78-205.14z"/>
			<rect x="114.91" y="-229.83" class="st0" width="153.22" height="153.22"/>
		</g>
		<g>
			<path class="st1" d="M86.63-243.56c0.46,0.34,0.81,0.81,1.12,1.3c0.52,0.83,1.04,1.67,1.5,2.53c2.15,4.03,3.44,8.65,4.55,13.1
				c0.8,3.17,1.66,6.33,2.68,9.43c0.36,1.09,0.02,1.38-0.84,1.46c-1.06,0.1-2.14,0.18-3.19,0.07c-4.5-0.45-9-0.94-13.49-1.5
				c-1.46-0.18-2.92-0.4-4.37-0.65c-0.97-0.16-3.1-0.12-3.73-0.99c-0.24-0.34-0.35-0.75-0.45-1.15c-0.82-3.33-1.63-6.67-2.45-10
				c-0.01-0.06-0.03-0.11-0.05-0.16c-0.66-2.48-0.37-3.01,2.16-3.15c3.4-0.18,6.8-0.21,10.2-0.3c0.34-0.01,0.68,0.03,1.02,0.03
				c2.36-0.05,2.86,0.27,3.5,2.59c0.41,1.47,0.69,2.98,1.01,4.48c0.22,1.05-0.15,1.52-1.27,1.31c-0.96-0.18-1.95-0.26-2.9-0.47
				c-0.22-0.05-0.41-0.44-0.52-0.71c-0.83-2.1-0.82-2.1-3.12-1.94c-0.51,0.04-1.02,0.07-1.53,0.1c-2.2,0.16-2.2,0.17-1.69,2.41
				c0.91,4,0.91,3.96,4.97,4.01c2.5,0.03,4.99,0.22,7.48,0.29c0.67,0.02,1.4,0.01,1.99-0.24c0.32-0.13,0.64-0.85,0.57-1.22
				c-0.36-1.93-1-3.81-1.25-5.75c-0.39-3.03-1.27-5.83-2.9-8.44c-0.84-1.36-1.82-2.01-3.42-1.92c-3.44,0.21-6.9,0.16-10.31,0.58
				c-3.43,0.42-6.81,1.23-10.2,1.95c-1.98,0.42-1.9-1.07-2.34-2.64c-0.56-2.02,0.5-2.77,2.43-2.93c5.68-0.48,11.36-1.05,17.04-1.55
				c1.37-0.12,2.75-0.21,4.13-0.27c1.03-0.05,2.42-0.39,3.35,0.14C86.44-243.69,86.54-243.63,86.63-243.56z"/>
			<path class="st1" d="M119.44-193.3c0.33-0.02,0.68,0.04,0.98,0.17c0.91,0.38,1.51,1.23,2.3,1.79c1.51,1.08,3.64,1.73,5.37,2.4
				c0.35,0.13,1-0.19,1.36-0.48c1.55-1.22,3.04-2.53,4.59-3.75c0.46-0.36,1.06-0.71,1.63-0.75c1.33-0.11,1.9,0.81,1.22,1.97
				c-0.48,0.82-1.07,1.61-1.77,2.25c-1.36,1.26-2.76,2.47-4.17,3.68c-1.04,0.9-1.95,2.27-3.51,1.99c-0.93-0.17-1.72-0.75-2.47-1.32
				c-1.7-1.28-3.39-2.56-5.09-3.83c-0.6-0.45-1.22-0.92-1.58-1.58c-0.36-0.66-0.39-1.56,0.13-2.1
				C118.7-193.14,119.06-193.27,119.44-193.3z"/>
			<rect y="-306.44" class="st0" width="153.22" height="153.22"/>
		</g>
	</g>
</pattern>
<pattern  id="SVGID_1_" xlink:href="#New_Pattern" patternTransform="matrix(1 0 0 1 1378.9719 -114.5899)">
</pattern>
<rect y="0" class="st2" width="1762" height="1133"/>
</svg>
